<svg xmlns="http://www.w3.org/2000/svg" width="100" height="100" id="cod">
  <g transform="translate(69.121 -221.431)scale(.80905)">
    <rect width="63.214" height="40.714" x="-73.879" y="317.729" fill="#fff" fill-rule="evenodd" stroke="#000" stroke-linecap="round" stroke-linejoin="round" stroke-width=".8" rx="3.599" ry="3.599"></rect>
    <g style="line-height:125%;-inkscape-font-specification:&quot;Segoe WP Black, Ultra-Bold&quot;">
      <path d="M-54.939 346.532c-.188.068-.43.145-.727.231-.297.087-.64.166-1.031.237-.39.071-.826.132-1.307.18-.481.05-1.003.074-1.567.074-1.435 0-2.674-.215-3.718-.643-1.045-.428-1.905-1.007-2.581-1.735a6.98 6.98 0 0 1-1.505-2.541 9.512 9.512 0 0 1-.49-3.071c0-1.277.207-2.45.62-3.516a7.915 7.915 0 0 1 1.775-2.761c.77-.774 1.702-1.375 2.795-1.803 1.093-.428 2.32-.643 3.68-.643.938 0 1.748.059 2.428.175.68.117 1.222.227 1.628.333v4.496a5.32 5.32 0 0 0-.603-.299 6.391 6.391 0 0 0-.8-.276 8.087 8.087 0 0 0-.975-.203 7.653 7.653 0 0 0-1.127-.079c-.563 0-1.104.081-1.622.243a3.686 3.686 0 0 0-1.364.76c-.39.346-.703.785-.935 1.319-.233.533-.35 1.168-.35 1.904 0 .624.094 1.193.282 1.708.188.514.462.954.823 1.318.36.365.802.648 1.324.851.522.203 1.114.304 1.775.304a6.9 6.9 0 0 0 1.098-.084c.35-.057.675-.13.975-.22.3-.09.577-.188.828-.293.252-.105.476-.207.671-.304zm17.907-7.685c0 1.285-.21 2.443-.631 3.476a7.831 7.831 0 0 1-1.742 2.649 7.677 7.677 0 0 1-2.603 1.69 8.655 8.655 0 0 1-3.217.592 8.696 8.696 0 0 1-3.139-.564 7.594 7.594 0 0 1-2.569-1.617c-.732-.702-1.31-1.557-1.735-2.564-.425-1.006-.637-2.14-.637-3.403 0-1.262.203-2.42.609-3.47.405-1.053.972-1.956 1.701-2.711a7.592 7.592 0 0 1 2.62-1.758c1.018-.417 2.14-.626 3.364-.626 1.157 0 2.224.194 3.2.58.977.388 1.819.94 2.525 1.657.706.718 1.258 1.59 1.656 2.615.398 1.025.598 2.177.598 3.454zm-5.162.135c0-.691-.07-1.303-.208-1.837-.14-.533-.334-.982-.586-1.346a2.583 2.583 0 0 0-.902-.829 2.424 2.424 0 0 0-1.166-.281c-.548 0-1.018.112-1.409.338-.39.225-.71.53-.958.912-.247.384-.428.83-.54 1.341a7.573 7.573 0 0 0-.17 1.634c0 .752.083 1.392.248 1.922.166.53.387.961.665 1.296.278.334.598.578.958.732.36.154.736.231 1.127.231.376 0 .74-.08 1.093-.242.353-.162.667-.41.941-.744.274-.334.494-.76.66-1.279.165-.518.247-1.134.247-1.848zm22.696-.293c0 1.262-.2 2.404-.603 3.426-.402 1.022-.969 1.891-1.701 2.609-.733.717-1.615 1.271-2.648 1.662-1.033.39-2.181.586-3.443.586h-6.84v-16.16h6.693c1.09 0 2.057.092 2.902.276.845.184 1.585.445 2.22.783a5.886 5.886 0 0 1 1.6 1.217 6.192 6.192 0 0 1 1.054 1.59c.27.585.466 1.216.586 1.892.12.677.18 1.383.18 2.12zm-5.172.045c0-.526-.08-1.037-.237-1.532a3.82 3.82 0 0 0-.721-1.319 3.498 3.498 0 0 0-1.228-.918c-.496-.23-1.082-.344-1.758-.344h-1.251v8.542h1.363a3.84 3.84 0 0 0 1.6-.321 3.417 3.417 0 0 0 1.206-.902 4.04 4.04 0 0 0 .761-1.397 5.843 5.843 0 0 0 .265-1.809z" font-family="Segoe WP Black" font-size="23.079" font-weight="800" letter-spacing="0" style="text-align:start;line-height:125%;-inkscape-font-specification:&quot;Segoe WP Black, Ultra-Bold&quot;" word-spacing="0"></path>
    </g>
    <rect width="44.527" height="40.714" x="-16.051" y="317.729" fill="#fff" fill-rule="evenodd" stroke="#000" stroke-linecap="round" stroke-linejoin="round" stroke-width=".8" rx="3.599" ry="3.599"></rect>
  </g>
  <path d="M28.368 989.05a1.025 1.025 0 0 0 .296 2.028H45.36l-.76 2.072H31.368a1.015 1.015 0 0 0-.21 0 1.02 1.02 0 0 0 .21 2.029h12.513l-.761 2.113a1.015 1.015 0 0 0-.254-.042H34.92a1.015 1.015 0 0 0-.211 0 1.02 1.02 0 0 0 .211 2.03h7.482l-4.142 11.37a1.015 1.015 0 0 0 .972 1.395h15.09a1.015 1.015 0 0 0 1.015-1.1c-.019-.233-.042-.356-.042-.422a5.734 5.734 0 0 1 5.749-5.749 5.734 5.734 0 0 1 5.749 5.75c0 .06-.026.178-.043.422a1.015 1.015 0 0 0 1.015 1.1h3.72a1.015 1.015 0 0 0 1.014-1.016v-7.693a1.015 1.015 0 0 0-.76-1.014l-7.017-1.86L58 989.515a1.015 1.015 0 0 0-.845-.465H28.665a1.015 1.015 0 0 0-.212 0 1.02 1.02 0 0 0-.084 0zm19.191 2.028h9.046l6.637 10.822a1.015 1.015 0 0 0 .592.465l6.636 1.733v5.918h-1.775c-.277-4.036-3.548-7.27-7.651-7.27-4.106 0-7.42 3.231-7.694 7.27H40.711l6.848-18.938zm7.355 1.776-5.283.084a1.015 1.015 0 0 0-.973.761l-1.86 6.932a1.015 1.015 0 0 0 .972 1.269h10.357a1.015 1.015 0 0 0 .93-1.395l-3.17-7.06a1.015 1.015 0 0 0-.973-.591zm-.634 2.029 2.283 4.988h-7.482l1.31-4.904 3.89-.084zm6.89 12.047c-2.4 0-4.353 1.995-4.353 4.396a4.358 4.358 0 0 0 4.353 4.354 4.358 4.358 0 0 0 4.354-4.354c0-2.4-1.952-4.396-4.354-4.396zm0 2.03a2.37 2.37 0 0 1 2.368 2.366c0 1.305-1.063 2.283-2.368 2.283-1.304 0-2.367-.978-2.367-2.283a2.37 2.37 0 0 1 2.367-2.367z" color="#000" font-family="Sans" font-weight="400" overflow="visible" style="text-indent:0;text-align:start;line-height:normal;text-transform:none;block-progression:tb;marker:none;-inkscape-font-specification:Sans" transform="translate(40 -612.053)scale(.66377)"></path>
</svg>
