<svg class="svg-icon" style="width: 1em; height: 1em;vertical-align: middle;fill: currentColor;overflow: hidden;" viewBox="0 0 1024 1024" version="1.1" xmlns="http://www.w3.org/2000/svg"><path d="M926 1024h-828c-37.6 0-68.4-30.8-68.4-68.4v-37.2h965.2v37.2c-0.4 37.6-30.8 68.4-68.8 68.4z m-884-93.2v24.8c0 30.8 25.2 56 56 56h828.4c30.8 0 56-25.2 56-56v-24.8H42z" fill="#4A555F" /><path d="M56.4 956.8v-11.6H968v11.6c0 22.4-18 40.4-40.4 40.4H96.8c-22.4 0-40.4-18-40.4-40.4z" fill="#E0E0E0" /><path d="M561.2 975.6h-98.8c-20 0-36-16-36-36v-20.8h170.8v20.8c0 19.6-16 36-36 36z m-122-44.8v8.8c0 12.8 10.4 23.6 23.6 23.6h98.8c12.8 0 23.6-10.4 23.6-23.6v-8.8h-146z" fill="#4A555F" /><path d="M408.8 664.8c3.6-3.6 6-8.8 6-14 0-10.8-8.8-20-20-20 0 0 8.8-40.4 8.8-81.2 0-40.8-8.8-81.2-8.8-81.2 5.6 0 10.4-2.4 14-6 3.6-3.6 5.6-8 5.6-13.2h54.8c0.4 10.8 9.2 19.2 20 19.2 0 0-8.8 40.4-8.8 81.2 0 20.4 2 40.8 4.4 56 2 15.2 4.4 25.2 4.4 25.2-5.6 0-10.4 2.4-14 6-3.6 3.6-6 8.8-6 14 0 10.8 8.8 20 20 20H394.8c5.2 0 10.4-2.4 14-6zM552.8 664.8c3.6-3.6 6-8.8 6-14 0-10.8-8.8-20-20-20 0 0 8.8-40.4 8.8-81.2 0-40.8-8.8-81.2-8.8-81.2 5.6 0 10.4-2.4 14-6 3.6-3.6 5.6-8 5.6-13.2h54.8c0.4 10.8 9.2 19.2 20 19.2 0 0-8.8 40.4-8.8 81.2 0 20.4 2 40.8 4.4 56 2 15.2 4.4 25.2 4.4 25.2-5.6 0-10.4 2.4-14 6-3.6 3.6-6 8.8-6 14 0 10.8 8.8 20 20 20h-94.8c5.6 0 10.8-2.4 14.4-6z" fill="#71CDE1" /><path d="M821.2 449.6V844H202.8v-394.4h122.4c0.4 10.8 9.2 19.2 20 19.2 0 0-8.8 40.4-8.8 81.2 0 20.4 2 40.8 4.4 56 2 15.2 4.4 25.2 4.4 25.2-5.6 0-10.4 2.4-14 6-3.6 3.6-6 8.8-6 14 0 10.8 8.8 20 20 20H272.8v69.6H760v-69.6h-77.6c5.6 0 10.4-2.4 14-6 3.6-3.6 6-8.8 6-14 0-10.8-8.8-20-20-20 0 0 8.8-40.4 8.8-81.2 0-40.8-8.8-81.2-8.8-81.2 5.6 0 10.4-2.4 14-6 3.6-3.6 5.6-8 6-13.2h118.8z" fill="#71CDE1" /><path d="M856 930.8H168c-29.6 0-54-24-54-54V411.2c0-29.6 24-53.6 54-53.6h138L278.8 372v50.8h66.4v12.4H188.4v423.2h647.2V435.2H682.8v-12.4h71.6V372l-26.8-14.4H856c29.6 0 53.6 24 53.6 53.6v465.6c0.4 30-23.6 54-53.6 54zM168 370c-22.8 0-41.6 18.4-41.6 41.6v465.6c0 22.8 18.8 41.6 41.6 41.6h688c22.8 0 41.6-18.8 41.6-41.6V411.2c0-22.8-18.4-41.6-41.6-41.6h-90v52.8H848v447.6H176V422.8h90.4V370H168z m463.2 65.2h-92.8v-12.4h94.8v12.4c-0.4-0.4-1.2-0.4-2 0z m-144 0H394.4v-12.4h94.8v12.4c-0.4-0.4-1.2-0.4-2 0z" fill="#4A555F" /><path d="M856 384.4h-96v24h102v476.4H161.6V408.4h111.2v-24H168c-14.8 0-27.2 12-27.2 27.2v465.6c0 14.8 12 27.2 27.2 27.2h688c14.8 0 27.2-12 27.2-27.2V411.2c0-14.8-12-26.8-27.2-26.8z" fill="#E0E0E0" /><path d="M766.4 434.8h-500V364.4l146.4-78.4 3.2 4c7.6 9.6 16.4 18.4 26.4 25.6 7.2 5.2 14.8 9.6 22.8 13.2 16 7.2 33.2 10.8 51.2 10.8s34.8-3.6 50.8-10.8c8-3.6 15.6-8 22.8-13.2 10-7.2 18.8-15.6 26.4-25.6l3.2-4 146.4 78.4v70.4z m-487.6-12.4h475.2V372l-130.8-70c-7.6 9.2-16.4 17.2-25.6 24-8 5.6-16.4 10.4-25.2 14.4-17.6 7.6-36.4 11.6-56 11.6s-38.4-4-56-11.6c-8.8-4-17.2-8.8-25.2-14.4-9.6-6.8-18.4-14.8-25.6-24L278.8 372v50.4z" fill="#4A555F" /><path d="M729.6 398.4H303.2v-11.6l136-72.8 3.2 2.4c7.2 5.2 14.8 9.6 22.8 13.2 16 7.2 33.2 10.8 51.2 10.8s34.8-3.6 50.8-10.8c8-3.6 15.6-8 22.8-13.2l3.2-2.4 136 72.8v11.6z m-398.8-12.4h371.6l-108-58c-6.8 4.8-14.4 8.8-22 12-17.6 7.6-36.4 11.6-56 11.6s-38.4-4-56-11.6c-7.6-3.2-14.8-7.6-22-12L330.8 386z" fill="#4A555F" /><path d="M633.6 368.8H399.2l63.6-34c16.4 7.2 34.4 11.2 53.6 11.2s37.2-4 53.6-11.2l63.6 34z" fill="#F68F6F" /><path d="M394.8 474.8H345.2c-14.4 0-26-11.6-26-26s11.6-26 26-26h49.2c14.4 0 26 11.6 26 26s-11.2 26-25.6 26z m-49.6-40c-7.6 0-13.6 6-13.6 13.6s6 13.6 13.6 13.6h49.2c7.6 0 13.6-6 13.6-13.6s-6-13.6-13.6-13.6H345.2zM394.8 676.8H345.2c-14.4 0-26-11.6-26-26s11.6-26 26-26h49.2c14.4 0 26 11.6 26 26 0.4 14.4-11.2 26-25.6 26z m-49.6-39.6c-7.6 0-13.6 6-13.6 13.6s6 13.6 13.6 13.6h49.2c7.6 0 13.6-6 13.6-13.6s-6-13.6-13.6-13.6H345.2z" fill="#4A555F" /><path d="M399.6 637.2H340.4l-1.2-4.8c-0.4-1.6-8.8-41.6-8.8-82.4 0-40.8 8.4-80.8 8.8-82.4l1.2-4.8h59.2l1.2 4.8c0.4 1.6 8.8 41.6 8.8 82.4 0 40.8-8.4 80.8-8.8 82.4l-1.2 4.8z m-49.2-12.4h39.2c2.4-12 7.6-43.6 7.6-74.8 0-31.6-5.2-63.2-7.6-74.8h-39.2c-2.4 12-7.6 43.6-7.6 74.8 0 31.2 5.2 62.8 7.6 74.8zM538.8 474.8h-49.2c-14.4 0-26-11.6-26-26s11.6-26 26-26h49.2c14.4 0 26 11.6 26 26s-12 26-26 26z m-49.6-40c-7.6 0-13.6 6-13.6 13.6s6 13.6 13.6 13.6h49.2c7.6 0 13.6-6 13.6-13.6s-6-13.6-13.6-13.6h-49.2zM538.8 676.8h-49.2c-14.4 0-26-11.6-26-26s11.6-26 26-26h49.2c14.4 0 26 11.6 26 26s-12 26-26 26z m-49.6-39.6c-7.6 0-13.6 6-13.6 13.6s6 13.6 13.6 13.6h49.2c7.6 0 13.6-6 13.6-13.6s-6-13.6-13.6-13.6h-49.2z" fill="#4A555F" /><path d="M543.6 637.2h-59.2l-1.2-4.8c-0.4-1.6-8.8-41.6-8.8-82.4 0-40.8 8.4-80.8 8.8-82.4l1.2-4.8h59.2l1.2 4.8c0.4 1.6 8.8 41.6 8.8 82.4 0 40.8-8.4 80.8-8.8 82.4l-1.2 4.8z m-49.2-12.4h39.2c2.4-12 7.6-43.6 7.6-74.8 0-31.6-5.2-63.2-7.6-74.8h-39.2c-2.4 12-7.6 43.6-7.6 74.8 0 31.2 5.2 62.8 7.6 74.8zM682.4 474.8h-49.2c-14.4 0-26-11.6-26-26s11.6-26 26-26h49.2c14.4 0 26 11.6 26 26s-11.6 26-26 26z m-49.2-40c-7.6 0-13.6 6-13.6 13.6s6 13.6 13.6 13.6h49.2c7.6 0 13.6-6 13.6-13.6s-6-13.6-13.6-13.6h-49.2zM682.4 676.8h-49.2c-14.4 0-26-11.6-26-26s11.6-26 26-26h49.2c14.4 0 26 11.6 26 26 0.4 14.4-11.6 26-26 26z m-49.2-39.6c-7.6 0-13.6 6-13.6 13.6s6 13.6 13.6 13.6h49.2c7.6 0 13.6-6 13.6-13.6s-6-13.6-13.6-13.6h-49.2z" fill="#4A555F" /><path d="M687.6 637.2h-59.2l-1.2-4.8c-0.4-1.6-8.8-41.6-8.8-82.4 0-40.8 8.4-80.8 8.8-82.4l1.2-4.8h59.2l1.2 4.8c0.4 1.6 8.8 41.6 8.8 82.4 0 40.8-8.4 80.8-8.8 82.4l-1.2 4.8z m-49.2-12.4h39.2c2.4-12 7.6-43.6 7.6-74.8 0-31.6-5.2-63.2-7.6-74.8h-39.2c-2.4 12-7.6 43.6-7.6 74.8 0 31.2 5.2 62.8 7.6 74.8zM766.4 746.4h-500v-82h499.6v82z m-487.6-12h475.2v-57.6H278.8v57.6z" fill="#4A555F" /><path d="M707.6 711.6H319.2v-47.2h388.4v47.2z m-376-12.4h363.6v-22.4H331.6v22.4z" fill="#4A555F" /><path d="M707.6 746.4H319.2v-47.2h388.4v47.2z m-376-12h363.6V712H331.6v22.4z" fill="#4A555F" /><path d="M516.4 352c-37.2 0-72-14.4-98.4-40.8-26.4-26.4-40.8-61.2-40.8-98.4 0-76.8 62.4-139.2 139.2-139.2 37.2 0 72 14.4 98.4 40.8 26.4 26.4 40.8 61.2 40.8 98.4 0 76.4-62.4 139.2-139.2 139.2z m0-266.4c-70 0-126.8 56.8-126.8 126.8 0 34 13.2 65.6 37.2 89.6 24 24 56 37.2 89.6 37.2 70 0 126.8-56.8 126.8-126.8 0-34-13.2-65.6-37.2-89.6-23.6-24-55.6-37.2-89.6-37.2z" fill="#4A555F" /><path d="M516.4 325.2c-30 0-58.4-11.6-79.6-32.8-21.2-21.2-32.8-49.6-32.8-79.6 0-62 50.4-112.4 112.4-112.4 30 0 58.4 11.6 79.6 32.8 21.2 21.2 32.8 49.6 32.8 79.6 0 62-50.4 112.4-112.4 112.4z" fill="#FFD552" /><path d="M510.4 0h12.4v43.2h-12.4z" fill="#4A555F" /><path d="M685.6 206.4h43.2v12.4h-43.2zM304 206.4h43.2v12.4H304z" fill="#4A555F" /><path d="M370.216 58.068l30.544 30.544-8.768 8.768-30.544-30.544z" fill="#4A555F" /><path d="M661.952 57.876l8.768 8.768-30.548 30.544-8.768-8.768z" fill="#4A555F" /><path d="M516.4 273.2c-18.8 0-34-15.2-34-34h12.4c0 12 9.6 21.6 21.6 21.6 12 0 21.6-9.6 21.6-21.6 0-10.8-8.8-19.6-19.6-19.6h-2.4c-18.8 0-34-15.2-34-34s15.2-34 34-34 34 15.2 34 34v0.4h-12.4v-0.4c0-12-9.6-21.6-21.6-21.6-12 0-21.6 9.6-21.6 21.6 0 12 9.6 21.6 21.6 21.6h2.4c17.6 0 31.6 14.4 31.6 31.6 0.4 19.2-14.8 34.4-33.6 34.4z" fill="#4A555F" /><path d="M510.4 132.8h12.4v25.2h-12.4zM510.4 267.2h12.4v25.2h-12.4z" fill="#4A555F" /></svg>